<?xml version="1.0" standalone="no"?>
<!DOCTYPE svg PUBLIC "-//W3C//DTD SVG 20010904//EN"
 "http://www.w3.org/TR/2001/REC-SVG-20010904/DTD/svg10.dtd">
<svg version="1.0" xmlns="http://www.w3.org/2000/svg"
 width="260.000000pt" height="260.000000pt" viewBox="0 0 260.000000 260.000000"
 preserveAspectRatio="xMidYMid meet">
<metadata>
Created by potrace 1.14, written by Peter Selinger 2001-2017
</metadata>
<g transform="translate(0.000000,260.000000) scale(0.100000,-0.100000)"
fill="#000000" stroke="none">
<path d="M1293 2350 c-253 -27 -445 -114 -608 -275 -139 -137 -219 -279 -272
-484 -33 -128 -43 -385 -20 -536 38 -248 134 -443 293 -596 150 -144 308 -213
549 -240 265 -29 616 50 817 184 l48 32 0 468 0 467 -325 0 -325 0 0 -155 0
-154 143 -3 142 -3 3 -205 2 -205 -34 -23 c-77 -53 -154 -75 -271 -80 -204 -7
-354 45 -474 167 -143 144 -201 307 -201 561 0 134 11 211 45 318 62 195 205
346 386 408 100 35 257 43 349 19 74 -19 238 -94 286 -130 l32 -25 50 93 c27
50 62 117 77 146 l27 55 -28 24 c-168 137 -422 200 -691 172z"/>
</g>
</svg>
